
<svg xmlns="http://www.w3.org/2000/svg">
    <defs>
        <symbol id="upload-file" viewBox="0 0 512 512">
	<path fill="#9bc9ff" fill-rule="evenodd" d="m164.91 355.681 91.092-104.764 91.092 104.764h-36.609c-2.212 0-4.019 1.784-4.019 4v140.32H205.539v-140.32c0-2.216-1.807-4-4.019-4h-36.61zM369.836 56.654v-39l38.985 39h-38.985z" clip-rule="evenodd"></path><path fill="#57a4ff" fill-rule="evenodd" d="M151.849 81.65c0-4.41 3.585-8 7.972-8h138.07c4.434 0 8.019 3.59 8.019 8 0 4.42-3.585 8-8.019 8H159.82c-4.386 0-7.971-3.58-7.971-8zm208.307 113.362c0 4.41-3.585 8-7.972 8H159.82c-4.387 0-7.972-3.59-7.972-8 0-4.42 3.585-8 7.972-8h192.364c4.387 0 7.972 3.58 7.972 8zm0-56.681c0 4.42-3.585 8-7.972 8H159.82c-4.387 0-7.972-3.58-7.972-8s3.585-8 7.972-8h192.364c4.387 0 7.972 3.58 7.972 8zM318.504 421.15h91.984V68.65h-44.671c-4.434 0-7.972-3.59-7.972-8V16.002H101.517V421.15h91.984v-53.468h-37.359a8.041 8.041 0 0 1-7.311-4.679c-1.274-2.849-.802-6.198 1.274-8.561l99.861-114.871a8.002 8.002 0 0 1 12.076 0l99.861 114.871a7.909 7.909 0 0 1 1.226 8.561c-1.274 2.849-4.104 4.679-7.264 4.679h-37.359v53.468h-.002zm-16.038-61.468v136.32h-92.927v-136.32c0-4.411-3.585-8-8.019-8h-27.831l82.314-94.668 82.314 94.668h-27.831c-4.435-.001-8.02 3.589-8.02 8zm71.37-332.368 25.331 25.34h-25.331v-25.34zm50.284 27.68L371.477 2.342a8.02 8.02 0 0 0-5.66-2.34H93.545c-4.434 0-8.019 3.58-8.019 8V429.15c0 4.411 3.585 8 8.019 8h99.956v66.851c0 4.42 3.585 8 8.019 8h108.965c4.387 0 8.019-3.58 8.019-8V437.15h99.956c4.434 0 8.019-3.59 8.019-8V60.65a7.961 7.961 0 0 0-2.359-5.656z" clip-rule="evenodd"></path>
        </symbol>
	<symbol id='wave-down'>
    	<path fill="#00cba9" fill-opacity="1" d="M0,96L30,96C60,96,120,96,180,117.3C240,139,300,181,360,186.7C420,192,480,160,540,133.3C600,107,660,85,720,90.7C780,96,840,128,900,149.3C960,171,1020,181,1080,197.3C1140,213,1200,235,1260,229.3C1320,224,1380,192,1410,176L1440,160L1440,320L1410,320C1380,320,1320,320,1260,320C1200,320,1140,320,1080,320C1020,320,960,320,900,320C840,320,780,320,720,320C660,320,600,320,540,320C480,320,420,320,360,320C300,320,240,320,180,320C120,320,60,320,30,320L0,320Z"></path>
	</symbol>
    </defs>
</svg>
