
<svg xmlns="http://www.w3.org/2000/svg">
    <defs>
        <symbol id="upload-file" viewBox="0 0 512 512">
	<path fill="#9bc9ff" fill-rule="evenodd" d="m164.91 355.681 91.092-104.764 91.092 104.764h-36.609c-2.212 0-4.019 1.784-4.019 4v140.32H205.539v-140.32c0-2.216-1.807-4-4.019-4h-36.61zM369.836 56.654v-39l38.985 39h-38.985z" clip-rule="evenodd"></path><path fill="#57a4ff" fill-rule="evenodd" d="M151.849 81.65c0-4.41 3.585-8 7.972-8h138.07c4.434 0 8.019 3.59 8.019 8 0 4.42-3.585 8-8.019 8H159.82c-4.386 0-7.971-3.58-7.971-8zm208.307 113.362c0 4.41-3.585 8-7.972 8H159.82c-4.387 0-7.972-3.59-7.972-8 0-4.42 3.585-8 7.972-8h192.364c4.387 0 7.972 3.58 7.972 8zm0-56.681c0 4.42-3.585 8-7.972 8H159.82c-4.387 0-7.972-3.58-7.972-8s3.585-8 7.972-8h192.364c4.387 0 7.972 3.58 7.972 8zM318.504 421.15h91.984V68.65h-44.671c-4.434 0-7.972-3.59-7.972-8V16.002H101.517V421.15h91.984v-53.468h-37.359a8.041 8.041 0 0 1-7.311-4.679c-1.274-2.849-.802-6.198 1.274-8.561l99.861-114.871a8.002 8.002 0 0 1 12.076 0l99.861 114.871a7.909 7.909 0 0 1 1.226 8.561c-1.274 2.849-4.104 4.679-7.264 4.679h-37.359v53.468h-.002zm-16.038-61.468v136.32h-92.927v-136.32c0-4.411-3.585-8-8.019-8h-27.831l82.314-94.668 82.314 94.668h-27.831c-4.435-.001-8.02 3.589-8.02 8zm71.37-332.368 25.331 25.34h-25.331v-25.34zm50.284 27.68L371.477 2.342a8.02 8.02 0 0 0-5.66-2.34H93.545c-4.434 0-8.019 3.58-8.019 8V429.15c0 4.411 3.585 8 8.019 8h99.956v66.851c0 4.42 3.585 8 8.019 8h108.965c4.387 0 8.019-3.58 8.019-8V437.15h99.956c4.434 0 8.019-3.59 8.019-8V60.65a7.961 7.961 0 0 0-2.359-5.656z" clip-rule="evenodd"></path>
        </symbol>
	<symbol id='wave-down'>
    	<path fill="#00cba9" fill-opacity="1" d="M0,96L30,96C60,96,120,96,180,117.3C240,139,300,181,360,186.7C420,192,480,160,540,133.3C600,107,660,85,720,90.7C780,96,840,128,900,149.3C960,171,1020,181,1080,197.3C1140,213,1200,235,1260,229.3C1320,224,1380,192,1410,176L1440,160L1440,320L1410,320C1380,320,1320,320,1260,320C1200,320,1140,320,1080,320C1020,320,960,320,900,320C840,320,780,320,720,320C660,320,600,320,540,320C480,320,420,320,360,320C300,320,240,320,180,320C120,320,60,320,30,320L0,320Z"></path>
	</symbol>
	<symbol id='email-address'>
	<svg xmlns="http://www.w3.org/2000/svg" fill='none' enable-background="new 0 0 100 100" viewBox="0 0 100 100" id="email"><path d="M50,5C25.2,5,5,25.2,5,50c0,24.8,20.2,45,45,45c1.1,0,2-0.9,2-2s-0.9-2-2-2C27.4,91,9,72.6,9,50S27.4,9,50,9s41,18.4,41,41
	v10c0,5-4,9-9,9s-9-4-9-9V50c0-12.7-10.3-23-23-23c-12.7,0-23,10.3-23,23c0,12.7,10.3,23,23,23c8.1,0,15.1-4.2,19.3-10.4
	C70.4,68.5,75.7,73,82,73c7.2,0,13-5.8,13-13V50C95,25.2,74.8,5,50,5z M50,69c-10.5,0-19-8.5-19-19s8.5-19,19-19s19,8.5,19,19
	S60.5,69,50,69z"></path></svg>

	</symbol>
	<symbol id='password'>
<svg xmlns="http://www.w3.org/2000/svg" viewBox="0 0 24 24" id="password"><g><path d="M19,20H5a4,4,0,0,1-4-4V12A4,4,0,0,1,5,8H19a4,4,0,0,1,4,4v4A4,4,0,0,1,19,20ZM5,10a2,2,0,0,0-2,2v4a2,2,0,0,0,2,2H19a2,2,0,0,0,2-2V12a2,2,0,0,0-2-2Z"></path><path d="M19,10H5V8A7,7,0,0,1,19,8ZM7,8H17A5,5,0,0,0,7,8Z"></path><path d="M19,9H5a3,3,0,0,0-3,3v4a3,3,0,0,0,3,3H19a3,3,0,0,0,3-3V12A3,3,0,0,0,19,9ZM6,15a1,1,0,1,1,1-1A1,1,0,0,1,6,15Zm4,0a1,1,0,1,1,1-1A1,1,0,0,1,10,15Zm4,0a1,1,0,1,1,1-1A1,1,0,0,1,14,15Zm4,0a1,1,0,1,1,1-1A1,1,0,0,1,18,15Z"></path></g></svg>
	</symbol>
	<symbol id='username'>
	<svg xmlns="http://www.w3.org/2000/svg" enable-background="new 0 0 512 512" viewBox="0 0 512 512" id="user"><path d="M376.9 175.9c-.3 49.8-31.7 96.2-78.8 113.4-48.2 17.6-102.7 2.8-135.5-36.6-32.4-38.9-36.2-96-10.2-139.1 26-43.3 78.1-66.4 127.7-56.2 49.2 10.1 87.5 50.3 95.5 99.8C376.5 163.4 376.9 169.7 376.9 175.9c.1 9.6 15.1 9.7 15 0-.3-56.7-36-107.9-89.2-127.6-53-19.7-115.2-2.9-151.2 40.7-36.4 44.2-41.7 108.2-11.8 157.4 29.6 48.5 87.3 73.6 142.9 62.8 54.8-10.7 99.1-56.7 107.5-111.9 1.1-7.1 1.7-14.2 1.7-21.3C392 166.3 377 166.3 376.9 175.9zM22.7 469.8c49.5-48.5 111.9-82.8 180.5-94.4 64.5-10.9 131.8-.6 190.7 27.6 35.2 16.9 67.3 39.6 95.3 66.8 6.9 6.7 17.6-3.9 10.6-10.6-51.1-49.4-115.6-85-185.9-97.6-67.8-12.2-137.8-2.8-200.3 26.3C76 405.5 41.8 430.1 12.1 459.2 5.2 465.9 15.8 476.5 22.7 469.8L22.7 469.8z"></path></svg>

	<symbol id='stats'>
	<svg xmlns="http://www.w3.org/2000/svg" viewBox="0 0 96 96" id="graph"><g transform="translate(0 -956.362)"><path d="M 48 0 C 21.502177 0 0 21.5022 0 48 C 0 74.4979 21.502177 96 48 96 C 74.497823 96 96 74.4979 96 48 C 96 21.5022 74.497823 0 48 0 z M 48 2 C 73.416943 2 94 22.58309 94 48 C 94 73.417 73.416943 94 48 94 C 22.583057 94 2 73.417 2 48 C 2 22.58309 22.583057 2 48 2 z M 44 25 L 44 68 L 52 68 L 52 25 L 44 25 z M 68 33 L 68 68 L 76 68 L 76 33 L 68 33 z M 32 36 L 32 68 L 40 68 L 40 36 L 32 36 z M 56 46 L 56 68 L 64 68 L 64 46 L 56 46 z M 20 51 L 20 68 L 28 68 L 28 51 L 20 51 z M 19.035156 69 C 18.462053 69 18 69.431297 18 69.966797 L 18 70.033203 C 18 70.568699 18.462053 71 19.035156 71 L 20 71 L 28 71 L 76.964844 71 C 77.537947 71 78 70.568703 78 70.033203 L 78 69.966797 C 78 69.431301 77.537947 69 76.964844 69 L 76 69 L 68 69 L 64 69 L 56 69 L 52 69 L 44 69 L 40 69 L 32 69 L 28 69 L 20 69 L 19.035156 69 z " transform="translate(0 956.362)"></path></g></svg>

	</symbol>
	<symbol id='matching'>
	<svg xmlns="http://www.w3.org/2000/svg" viewBox="0 0 24 24" id="users"><path d="M12.3,12.22A4.92,4.92,0,0,0,14,8.5a5,5,0,0,0-10,0,4.92,4.92,0,0,0,1.7,3.72A8,8,0,0,0,1,19.5a1,1,0,0,0,2,0,6,6,0,0,1,12,0,1,1,0,0,0,2,0A8,8,0,0,0,12.3,12.22ZM9,11.5a3,3,0,1,1,3-3A3,3,0,0,1,9,11.5Zm9.74.32A5,5,0,0,0,15,3.5a1,1,0,0,0,0,2,3,3,0,0,1,3,3,3,3,0,0,1-1.5,2.59,1,1,0,0,0-.5.84,1,1,0,0,0,.45.86l.39.26.13.07a7,7,0,0,1,4,6.38,1,1,0,0,0,2,0A9,9,0,0,0,18.74,11.82Z"></path></svg>

	</symbol>
	<symbol id='apply'>
	<svg xmlns="http://www.w3.org/2000/svg" viewBox='0 0 28 28' id="suitcase"><path style="line-height:normal;text-indent:0;text-align:start;text-decoration-line:none;text-decoration-style:solid;text-decoration-color:#000;text-transform:none;block-progression:tb;isolation:auto;mix-blend-mode:normal" d="M14 0C6.274 0 0 6.274 0 14s6.274 14 14 14 14-6.274 14-14S21.726 0 14 0zm0 1c7.186 0 13 5.814 13 13s-5.814 13-13 13S1 21.186 1 14 6.814 1 14 1zm-1.5 6.486c-.8 0-1.5.7-1.5 1.5v1H9c-.411 0-.802.144-1.078.42a1.52 1.52 0 0 0-.422 1.08v6c0 .411.146.802.422 1.078s.667.422 1.078.422h10c.411 0 .802-.146 1.078-.422s.422-.667.422-1.078v-6a1.52 1.52 0 0 0-.422-1.08A1.514 1.514 0 0 0 19 9.986h-2v-1c0-.8-.7-1.5-1.5-1.5h-3zm0 1h3c.3 0 .5.2.5.5v1h-4v-1c0-.3.2-.5.5-.5zm-3.5 2.5h2v.5c0 .3.2.5.5.5s.5-.2.5-.5v-.5h4v.5c0 .3.2.5.5.5s.5-.2.5-.5v-.5h2c.189 0 .297.053.371.127.074.074.129.184.129.373v6c0 .19-.055.297-.129.371-.074.074-.182.13-.371.13H9c-.189 0-.297-.056-.371-.13-.074-.074-.129-.182-.129-.37v-6c0-.19.055-.3.129-.374.074-.074.182-.127.371-.127z" color="#000" font-family="sans-serif" font-weight="400" overflow="visible"></path></svg>

	</symbol>
	<symbol id='plus'>
	<svg xmlns="http://www.w3.org/2000/svg" viewBox="0 0 24 24" id="plus"><path d="M19,11H13V5a1,1,0,0,0-2,0v6H5a1,1,0,0,0,0,2h6v6a1,1,0,0,0,2,0V13h6a1,1,0,0,0,0-2Z"></path></svg>
	</symbol>
	<symbol id='minus'>
<svg xmlns="http://www.w3.org/2000/svg" id="minus" x="0" y="0" version="1.1" viewBox="0 0 29 29" xml:space="preserve"><path fill="none" stroke="#000" stroke-linecap="round" stroke-linejoin="round" stroke-miterlimit="10" stroke-width="2" d="M22 14.5H7"></path></svg>
	</symbol>
	<symbol id='phone'>
	<svg  viewBox="0 0 32 32" version="1.1" xmlns="http://www.w3.org/2000/svg">
<title>phone</title>
<path d="M0 10.375c0 0.938 0.344 1.969 0.781 3.063s1 2.125 1.438 2.906c1.188 2.063 2.719 4.094 4.469 5.781s3.813 3.094 6.125 3.938c1.344 0.531 2.688 1.125 4.188 1.125 0.75 0 1.813-0.281 2.781-0.688 0.938-0.406 1.781-1.031 2.094-1.781 0.125-0.281 0.281-0.656 0.375-1.094 0.094-0.406 0.156-0.813 0.156-1.094 0-0.156 0-0.313-0.031-0.344-0.094-0.188-0.313-0.344-0.563-0.5-0.563-0.281-0.656-0.375-1.5-0.875-0.875-0.5-1.781-1.063-2.563-1.469-0.375-0.219-0.625-0.313-0.719-0.313-0.5 0-1.125 0.688-1.656 1.438-0.563 0.75-1.188 1.438-1.625 1.438-0.219 0-0.438-0.094-0.688-0.25s-0.5-0.281-0.656-0.375c-2.75-1.563-4.594-3.406-6.156-6.125-0.188-0.313-0.625-0.969-0.625-1.313 0-0.406 0.563-0.875 1.125-1.375 0.531-0.469 1.094-1.031 1.094-1.719 0-0.094-0.063-0.375-0.188-0.781-0.281-0.813-0.656-1.75-0.969-2.656-0.156-0.438-0.281-0.75-0.313-0.906-0.063-0.094-0.094-0.219-0.125-0.375s-0.094-0.281-0.125-0.406c-0.094-0.281-0.25-0.5-0.406-0.625-0.156-0.063-0.531-0.156-0.906-0.188-0.375 0-0.813-0.031-1-0.031-0.094 0-0.219 0-0.344 0.031h-0.406c-1 0.438-1.719 1.313-2.25 2.344-0.5 1.031-0.813 2.188-0.813 3.219z"></path>
</svg>
	</symbol>
	<symbol id='location'>
	<svg viewBox="0 0 32 32" xmlns="http://www.w3.org/2000/svg">
<g id="location">
<path d="M16,1A11,11,0,0,0,5,12C5,23.24,15,30.51,15.42,30.81a1,1,0,0,0,1.16,0C17,30.51,27,23.24,27,12A11,11,0,0,0,16,1Zm0,16a5,5,0,1,1,5-5A5,5,0,0,1,16,17Z"/>
</g>
</svg>
	</symbol>
	<symbol id='linkdedin'>
	<svg xmlns="http://www.w3.org/2000/svg" enable-background="new 0 0 24 24" viewBox="0 0 24 24" id="linkedin"><path d="M7.5006104,9C7.5003662,9,7.5001831,9,7.5,9h-4C3.223999,8.9998169,3.0001831,9.2234497,3,9.4993896C3,9.4996338,3,9.4998169,3,9.5v12c-0.0001831,0.276001,0.2234497,0.4998169,0.4993896,0.5C3.4996338,22,3.4998169,22,3.5,22h4c0.276001,0.0001831,0.4998169-0.2234497,0.5-0.4994507C8,21.5003662,8,21.5001831,8,21.5v-12C8.0001831,9.223999,7.7765503,9.0001831,7.5006104,9z M7,21H4V10h3V21z M18,9c-1.0848389,0.000061-2.1393433,0.3580933-3,1.0185547V9.5c0.0001831-0.276001-0.2234497-0.4998169-0.4993896-0.5C14.5003662,9,14.5001831,9,14.5,9h-4c-0.276001-0.0001831-0.4998169,0.2234497-0.5,0.4993896C10,9.4996338,10,9.4998169,10,9.5v12c-0.0001831,0.276001,0.2234497,0.4998169,0.4994507,0.5c0.0001831,0,0.0003662,0,0.0005493,0h4c0.276001,0.0001831,0.4998169-0.2234497,0.5-0.4994507c0-0.0001831,0-0.0003662,0-0.0005493V16c0-0.8284302,0.6715698-1.5,1.5-1.5S18,15.1715698,18,16v5.5c-0.0001831,0.276001,0.2234497,0.4998169,0.4994507,0.5c0.0001831,0,0.0003662,0,0.0005493,0h4c0.276001,0.0001831,0.4998169-0.2234497,0.5-0.4994507c0-0.0001831,0-0.0003662,0-0.0005493V14C22.9967651,11.2399292,20.7600708,9.0032349,18,9z M22,21h-3v-5c0-1.3807373-1.1192627-2.5-2.5-2.5S14,14.6192627,14,16v5h-3V10h3v1.203125c0,0.2124634,0.1343994,0.4016724,0.335022,0.4716797c0.2001343,0.0721436,0.4240112,0.0079956,0.5556641-0.1591797c1.3625488-1.7268066,3.8669434-2.0220337,5.59375-0.6594238C21.4462891,11.6152344,22.0053101,12.7747192,22,14V21z M5.867981,2.0018311C5.7503662,1.9935913,5.6323242,1.992981,5.5146484,2C4.0053711,1.8969116,2.6983032,3.0368652,2.5952148,4.5461426c-0.0041504,0.06073-0.0062256,0.121521-0.0063477,0.182373c-0.0130005,1.49646,1.1895752,2.7200928,2.6860352,2.7330933c0.0610962,0.0005493,0.1221313-0.0010376,0.1831055-0.0046387h0.0283203c1.5064087,0.1054077,2.8129883-1.0303345,2.918396-2.5367432S7.3743896,2.1072388,5.867981,2.0018311z M5.8334351,6.4598389C5.7179565,6.470459,5.6016235,6.4695435,5.4863281,6.4569702H5.4580078C4.5018921,6.5304565,3.6672974,5.8150024,3.593811,4.8588867C3.5203247,3.902832,4.2357788,3.0681763,5.1918945,2.9946899C5.2994385,2.9864502,5.4074707,2.9882202,5.5146484,3C6.4700317,2.9119873,7.315918,3.6151123,7.4039917,4.5704956C7.4920044,5.5259399,6.7888794,6.3718262,5.8334351,6.4598389z"></path></svg>
	</symbol>
	<symbol id='upload-0x01'>
<svg xmlns="http://www.w3.org/2000/svg" enable-background="new 0 0 24 24" viewBox="0 0 24 24" id="upload"><path d="M18,9h-1.5C16.223877,9,16,9.223877,16,9.5s0.223877,0.5,0.5,0.5H18c1.1040039,0.0014038,1.9985962,0.8959961,2,2v7c-0.0014038,1.1040039-0.8959961,1.9985962-2,2H6c-1.1040039-0.0014038-1.9985962-0.8959961-2-2v-7c0.0014038-1.1040039,0.8959961-1.9985962,2-2h2.5C8.776123,10,9,9.776123,9,9.5S8.776123,9,8.5,9H6c-1.6561279,0.0018311-2.9981689,1.3438721-3,3v7c0.0018311,1.6561279,1.3438721,2.9981689,3,3h12c1.6561279-0.0018311,2.9981689-1.3438721,3-3v-7C20.9981689,10.3438721,19.6561279,9.0018311,18,9z M8.8623047,6.3447266L11.5,3.7069702v13.7935791C11.5001831,17.7765503,11.723999,18.0001831,12,18h0.0006104c0.2759399-0.0001831,0.4995728-0.223999,0.4993896-0.5V3.7069702l2.6376953,2.6377563c0.0936279,0.0939331,0.2208862,0.1466675,0.3535156,0.1464844c0.1325684,0,0.2597046-0.0526733,0.3534546-0.1464233c0.1952515-0.1951904,0.1953125-0.5117798,0.000061-0.7070923l-3.4909058-3.4909058c-0.0462036-0.0462646-0.1015625-0.0828247-0.1629028-0.1082153c-0.0580444-0.0239258-0.1194458-0.0354004-0.1812134-0.0366211C12.0062866,2.0018921,12.003418,2,12,2c-0.0023804,0-0.0043945,0.0012817-0.0067749,0.0013428C11.930481,2.0021973,11.8678589,2.0141602,11.80896,2.0385742c-0.0612793,0.0253296-0.1164551,0.0618896-0.1625977,0.1080322L8.1552734,5.6377563C8.1528931,5.6400757,8.1505127,5.6424561,8.1481323,5.6448975C7.954895,5.8421021,7.9580688,6.1586304,8.1552734,6.3518677S8.6690674,6.5419312,8.8623047,6.3447266z"></path></svg>
	</symbol>
	<symbol id='address'>
<svg xmlns="http://www.w3.org/2000/svg" viewBox="0 0 20 20" id="home"><path fill="none" stroke="#000" stroke-miterlimit="10" d="M5.5 17h3c.3 0 .5-.2.5-.5v-2.9c0-.3.3-.6.6-.6h.8c.3 0 .6.3.6.6v2.9c0 .3.2.5.5.5h3c.3 0 .5-.2.5-.5v-7c0-.3-.2-.5-.5-.5h-9c-.3 0-.5.2-.5.5v7c0 .3.2.5.5.5zM4.2 8.1l5.4-5c.2-.2.6-.2.8 0l5.4 5c.4.4.1.9-.4.9H4.6c-.5 0-.8-.5-.4-.9z"></path></svg>
	</symbol>
	<symbol id='github'>
	<svg xmlns="http://www.w3.org/2000/svg" viewBox="0 0 24 24" id="github"><path d="M12,2.2467A10.00042,10.00042,0,0,0,8.83752,21.73419c.5.08752.6875-.21247.6875-.475,0-.23749-.01251-1.025-.01251-1.86249C7,19.85919,6.35,18.78423,6.15,18.22173A3.636,3.636,0,0,0,5.125,16.8092c-.35-.1875-.85-.65-.01251-.66248A2.00117,2.00117,0,0,1,6.65,17.17169a2.13742,2.13742,0,0,0,2.91248.825A2.10376,2.10376,0,0,1,10.2,16.65923c-2.225-.25-4.55-1.11254-4.55-4.9375a3.89187,3.89187,0,0,1,1.025-2.6875,3.59373,3.59373,0,0,1,.1-2.65s.83747-.26251,2.75,1.025a9.42747,9.42747,0,0,1,5,0c1.91248-1.3,2.75-1.025,2.75-1.025a3.59323,3.59323,0,0,1,.1,2.65,3.869,3.869,0,0,1,1.025,2.6875c0,3.83747-2.33752,4.6875-4.5625,4.9375a2.36814,2.36814,0,0,1,.675,1.85c0,1.33752-.01251,2.41248-.01251,2.75,0,.26251.1875.575.6875.475A10.0053,10.0053,0,0,0,12,2.2467Z"></path></svg>
	</symbol>
	<symbol id='whatsapp'>
	<svg xmlns="http://www.w3.org/2000/svg" enable-background="new 0 0 24 24" viewBox="0 0 24 24" id="whatsapp"><path d="M16.6 14c-.2-.1-1.5-.7-1.7-.8-.2-.1-.4-.1-.6.1-.2.2-.6.8-.8 1-.1.2-.3.2-.5.1-.7-.3-1.4-.7-2-1.2-.5-.5-1-1.1-1.4-1.7-.1-.2 0-.4.1-.5.1-.1.2-.3.4-.4.1-.1.2-.3.2-.4.1-.1.1-.3 0-.4-.1-.1-.6-1.3-.8-1.8-.1-.7-.3-.7-.5-.7h-.5c-.2 0-.5.2-.6.3-.6.6-.9 1.3-.9 2.1.1.9.4 1.8 1 2.6 1.1 1.6 2.5 2.9 4.2 3.7.5.2.9.4 1.4.5.5.2 1 .2 1.6.1.7-.1 1.3-.6 1.7-1.2.2-.4.2-.8.1-1.2l-.4-.2m2.5-9.1C15.2 1 8.9 1 5 4.9c-3.2 3.2-3.8 8.1-1.6 12L2 22l5.3-1.4c1.5.8 3.1 1.2 4.7 1.2 5.5 0 9.9-4.4 9.9-9.9.1-2.6-1-5.1-2.8-7m-2.7 14c-1.3.8-2.8 1.3-4.4 1.3-1.5 0-2.9-.4-4.2-1.1l-.3-.2-3.1.8.8-3-.2-.3c-2.4-4-1.2-9 2.7-11.5S16.6 3.7 19 7.5c2.4 3.9 1.3 9-2.6 11.4"></path></svg>
	</symbol>
	<symbol id='insight'>
	<svg xmlns="http://www.w3.org/2000/svg"><g transform="translate(-1062.751 -1579.592)"><path fill="#938993" d="M1083.251 1586.092h3.5c.831 0 1.5.669 1.5 1.5v21c0 .831-.669 1.5-1.5 1.5h-16c-.83 0-1.5-.669-1.5-1.5v-21c0-.831.67-1.5 1.5-1.5h3.5z"></path><circle cx="1078.751" cy="1584.092" r=".5" fill="#0572e4"></circle><path fill="#f2f2f2" d="M1083.251 1588.092h2c.554 0 1 .446 1 1v18c0 .554-.446 1-1 1h-13c-.554 0-1-.446-1-1v-18c0-.554.446-1 1-1h2"></path><path fill="#cdcccd" d="M1081.001 1585.092h2.25v4h-9v-4h2.768a2 2 0 1 1 3.465 0z"></path><path style="line-height:normal;text-indent:0;text-align:start;text-decoration-line:none;text-decoration-style:solid;text-decoration-color:#000;text-transform:none;block-progression:tb;isolation:auto;mix-blend-mode:normal" fill="#62355c" d="M1078.751 1581.594c-.571 0-1.144.195-1.607.584-.72.604-.874 1.531-.69 2.414h-2.203a.5.5 0 0 0-.5.5v.5h-3c-1.099 0-2 .9-2 2v21c0 1.1.901 2 2 2h16c1.1 0 2-.9 2-2v-21c0-1.1-.9-2-2-2h-3v-.5a.5.5 0 0 0-.5-.5h-2.203c.185-.883.031-1.81-.69-2.414a2.497 2.497 0 0 0-1.607-.584zm0 .998c.343 0 .685.116.965.351.56.47.7 1.266.334 1.899a.5.5 0 0 0 .434.75h2.267v.42a.5.5 0 0 0 0 .162v1.838a.5.5 0 0 0 0 .162v.418h-8v-.422a.5.5 0 0 0 0-.16v-1.84a.5.5 0 0 0 0-.16v-.418h2.268a.5.5 0 0 0 .434-.75 1.494 1.494 0 0 1 .334-1.899c.28-.235.622-.351.964-.351zm-8 4h3v1h-1.5c-.822 0-1.5.678-1.5 1.5v18c0 .822.678 1.5 1.5 1.5h13c.823 0 1.5-.678 1.5-1.5v-18c0-.822-.677-1.5-1.5-1.5h-1.5v-1h3c.563 0 1 .437 1 1v21c0 .563-.437 1-1 1h-16c-.562 0-1-.437-1-1v-21c0-.563.438-1 1-1zm1.5 2h1.5v.5a.5.5 0 0 0 .5.5h9a.5.5 0 0 0 .5-.5v-.5h1.5c.286 0 .5.214.5.5v18c0 .286-.214.5-.5.5h-13a.488.488 0 0 1-.5-.5v-18c0-.286.215-.5.5-.5zm1.008 3a.5.5 0 1 0 0 1h.985a.5.5 0 1 0 0-1h-.985zm2.998 0a.5.5 0 1 0 0 1h4.987a.5.5 0 1 0 0-1h-4.987zm-2.998 3a.5.5 0 1 0 0 1h.985a.5.5 0 1 0 0-1h-.985zm2.998 0a.5.5 0 1 0 0 1h4.987a.5.5 0 1 0 0-1h-4.987zm-2.998 3a.5.5 0 1 0 0 1h.985a.5.5 0 1 0 0-1h-.985zm2.998 0a.5.5 0 1 0 0 1h4.987a.5.5 0 1 0 0-1h-4.987zm2.994 5c-.294 0-.506.136-.67.27a2.46 2.46 0 0 0-.402.43c-.22.289-.363.57-.363.57a.5.5 0 1 0 .887.462s.114-.22.273-.43a1.63 1.63 0 0 1 .225-.242c.029.048.053.085.096.168.065.127.139.283.275.442.136.159.388.33.68.33.291 0 .543-.171.68-.33.136-.16.21-.313.275-.44.02-.039.027-.046.045-.078.018.032.025.04.045.078.065.127.139.28.275.44.137.159.388.33.68.33.291 0 .543-.171.68-.33.136-.16.21-.313.275-.44.044-.085.069-.124.098-.172.067.056.155.148.232.249.163.21.282.43.282.43a.5.5 0 1 0 .88-.471s-.148-.281-.37-.57a2.472 2.472 0 0 0-.407-.429c-.165-.132-.375-.268-.67-.267-.294 0-.542.182-.672.34-.129.158-.198.31-.261.433-.03.057-.043.072-.066.114-.024-.041-.037-.058-.066-.116-.063-.123-.133-.273-.262-.431-.13-.158-.377-.34-.672-.34-.295 0-.543.182-.672.34-.13.158-.198.308-.262.431-.029.056-.043.072-.066.114-.024-.041-.037-.057-.066-.114-.063-.123-.132-.273-.261-.431-.13-.158-.377-.34-.672-.34zm-.992 3a.5.5 0 1 0 0 1h6a.5.5 0 1 0 0-1h-6z" color="#000" font-family="sans-serif" font-weight="400" overflow="visible"></path></g></svg>
	</symbol>
	<symbol id='upload-error'>
	<svg xmlns="http://www.w3.org/2000/svg" viewBox="0 0 650 512" id="searching-data"><circle cx="328.735" cy="256.85" r="157.404" fill="#dbe8ec"></circle><path fill="#dbe8ec" d="M534.38765,226.17651V210.34927a11.37979,11.37979,0,0,0-11.37979-11.37979H482.84108a11.37979,11.37979,0,0,1-11.37979-11.37979V171.76246a11.37979,11.37979,0,0,1,11.37979-11.37979h1.26822a11.37978,11.37978,0,0,0,11.37979-11.37979V133.17565a11.37978,11.37978,0,0,0-11.37979-11.37979H192.27543a11.37979,11.37979,0,0,0-11.37979,11.37979v15.82723a11.37979,11.37979,0,0,0,11.37979,11.37979h0a11.37978,11.37978,0,0,1,11.37979,11.37979v15.82723a11.37978,11.37978,0,0,1-11.37979,11.37979H148.26879A11.37979,11.37979,0,0,0,136.889,210.34927v15.82724a11.37979,11.37979,0,0,0,11.37978,11.37979h17.26754a11.37978,11.37978,0,0,1,11.37979,11.37979V264.7634a11.37978,11.37978,0,0,1-11.37979,11.37978h-.04173A11.3798,11.3798,0,0,0,154.11481,287.523v15.82716a11.37979,11.37979,0,0,0,11.37979,11.37979h2.49825a11.37979,11.37979,0,0,1,11.37979,11.37979V341.937a11.37978,11.37978,0,0,1-11.37979,11.37979H126.99214a11.37979,11.37979,0,0,0-11.37979,11.37979v15.82724a11.37978,11.37978,0,0,0,11.37979,11.37978H490.21879a11.37978,11.37978,0,0,0,11.37979-11.37978V364.6966a11.37979,11.37979,0,0,0-11.37979-11.37979H480.352A11.37979,11.37979,0,0,1,468.97217,341.937V326.10971A11.3798,11.3798,0,0,1,480.352,314.72992h23.265a11.37978,11.37978,0,0,0,11.37978-11.37979V287.523A11.37979,11.37979,0,0,0,503.617,276.14318h-7.05753a11.37979,11.37979,0,0,1-11.37979-11.37978V248.93609a11.37979,11.37979,0,0,1,11.37979-11.37979h26.44839A11.37979,11.37979,0,0,0,534.38765,226.17651Z"></path><line x1="393.152" x2="423.473" y1="117.511" y2="117.511" fill="none" stroke="#b9d4db" stroke-linecap="round" stroke-miterlimit="10" stroke-width="3"></line><line x1="393.152" x2="423.473" y1="126.25" y2="126.25" fill="none" stroke="#b9d4db" stroke-linecap="round" stroke-miterlimit="10" stroke-width="3"></line><line x1="393.152" x2="423.473" y1="134.989" y2="134.989" fill="none" stroke="#b9d4db" stroke-linecap="round" stroke-miterlimit="10" stroke-width="3"></line><line x1="414.157" x2="444.478" y1="360.745" y2="360.745" fill="none" stroke="#b9d4db" stroke-linecap="round" stroke-miterlimit="10" stroke-width="3"></line><line x1="414.157" x2="444.478" y1="369.484" y2="369.484" fill="none" stroke="#b9d4db" stroke-linecap="round" stroke-miterlimit="10" stroke-width="3"></line><line x1="414.157" x2="444.478" y1="378.223" y2="378.223" fill="none" stroke="#b9d4db" stroke-linecap="round" stroke-miterlimit="10" stroke-width="3"></line><line x1="162.528" x2="192.849" y1="216.199" y2="216.199" fill="none" stroke="#b9d4db" stroke-linecap="round" stroke-miterlimit="10" stroke-width="3"></line><line x1="162.528" x2="192.849" y1="224.938" y2="224.938" fill="none" stroke="#b9d4db" stroke-linecap="round" stroke-miterlimit="10" stroke-width="3"></line><line x1="162.528" x2="192.849" y1="233.677" y2="233.677" fill="none" stroke="#b9d4db" stroke-linecap="round" stroke-miterlimit="10" stroke-width="3"></line><path fill="#e06714" d="M495.29558,331.85966,377.81538,343.6786l-117.4802-11.81894a2,2,0,0,1-1.7998-1.99l-2.76845-8.09676,2.76845-132.65435,119.28,12,119.28-12L499.72693,322.853l-2.63155,7.01676A2,2,0,0,1,495.29558,331.85966Z"></path><path fill="#ee781d" d="M499.72693,322.853,377.81538,334.618,255.76693,321.773l2.76845-139.50369a2,2,0,0,1,2.2002-1.99L377.81538,192.058l117.0798-11.77865a2,2,0,0,1,2.2002,1.99Z"></path><polygon fill="#e06714" points="376.855 325.258 494.087 313.853 489.198 180.852 385.606 191.274 376.855 325.258"></polygon><polygon fill="#e06714" points="376.855 176.458 479.335 164.938 484.082 314.826 376.855 325.258 376.855 176.458"></polygon><polygon fill="#e06714" points="382.615 175.498 274.855 173.578 280.615 319.498 376.855 325.258 382.615 175.498"></polygon><polygon fill="#f9ae2b" points="377.815 168.538 480.295 157.018 487.495 307.258 377.815 317.338 377.815 168.538"></polygon><polygon fill="#e59413" points="377.815 312.364 377.815 317.338 487.495 307.258 487.258 302.306 377.815 312.364"></polygon><polygon fill="#f9ae2b" points="377.815 168.538 270.055 166.618 275.815 312.538 377.815 317.338 377.815 168.538"></polygon><polygon fill="#e59413" points="275.815 312.538 377.815 317.338 377.815 312.214 275.815 307.413 275.815 312.538"></polygon><path fill="#e59413" d="M282.60066 263.8533a54.05616 54.05616 0 0040.4815 50.90906l44.89325 2.11255V174.778s-33.92065 2.40845-69.09259-7.64648l-18.81964-.33521zM435.05726 312.0773a81.2126 81.2126 0 0033.94421-70.11841l-4.11206-83.20911-24.85388 2.79383c-22.7196 11.50281-50.50238 18.71216-50.50238 18.71216V316.26114z"></path><path fill="#f9ae2b" d="M377.81538,168.538s57.36-14.88,74.64-36l4.82836,97.70322a81.21772,81.21772,0,0,1-62.338,83.02522L377.81538,317.338Z"></path><path fill="#e59413" d="M393.06385,168.538l-15.24847,148.8s19.4169-1.467,20.93954-1.92442c17.05024-15.64062,26.75754-41.91973,24.444-65.26519l-9.29345-93.77942c-6.17029,2.53211-12.21875,4.72376-17.55018,6.52234C394.4,166.29129,393.06385,168.538,393.06385,168.538Z"></path><path fill="#f9ae2b" d="M377.81538 168.538s16.56-27.84 18.48-36l11.65507 117.61031a74.05024 74.05024 0 01-30.135 67.18967l0 0zM377.81538 168.538s-47.28 3.36-88.08-14.4l2.70524 103.47537a54.06259 54.06259 0 0043.76165 51.66283l41.61311 8.0618z"></path><path fill="#e59413" d="M377.81538 168.538c.82761 12.4 1.26059 24.8 1.55472 37.2.18427 6.2.22522 12.4.33362 18.6l.11046 18.6-.105 18.6c-.11151 6.2-.147 12.4-.33307 18.6-.293 12.4-.72809 24.8-1.56069 37.2-.83261-12.4-1.2677-24.8-1.5607-37.2-.18605-6.2-.22155-12.4-.33306-18.6l-.10505-18.6.11046-18.6c.1084-6.2.14936-12.4.33362-18.6C376.55478 193.338 376.98776 180.938 377.81538 168.538zM307.96693 189.493c5.04345.42658 9.98935 1.03365 14.93308 1.6145l14.77342 1.76915c4.91741.57886 9.8319 1.06214 14.7645 1.54462 4.9384.47008 9.87448.761 14.929 1.19174a70.35258 70.35258 0 01-15.02732 1.95194 109.63853 109.63853 0 01-15.12471-.71589 125.97344 125.97344 0 01-14.87588-2.65777A88.70831 88.70831 0 01307.96693 189.493zM307.96693 210.84843c5.04345.42658 9.98935 1.03363 14.93308 1.61451l14.77342 1.76915c4.91741.57884 9.8319 1.06213 14.7645 1.54461 4.9384.47007 9.87448.761 14.929 1.19173a70.35132 70.35132 0 01-15.02732 1.95195 109.64009 109.64009 0 01-15.12471-.71588 125.97346 125.97346 0 01-14.87588-2.65778A88.70733 88.70733 0 01307.96693 210.84843zM307.96693 232.20392c5.04345.42657 9.98935 1.03363 14.93308 1.6145l14.77342 1.76915c4.91741.57884 9.8319 1.06213 14.7645 1.54462 4.9384.47006 9.87448.761 14.929 1.19172a70.35132 70.35132 0 01-15.02732 1.95195A109.63852 109.63852 0 01337.2149 239.56a125.97753 125.97753 0 01-14.87588-2.65777A88.71026 88.71026 0 01307.96693 232.20392zM307.96693 253.5594c5.04345.42658 9.98935 1.03363 14.93308 1.6145l14.77342 1.76915c4.91741.57886 9.8319 1.06214 14.7645 1.54462 4.9384.47006 9.87448.761 14.929 1.19174a70.35258 70.35258 0 01-15.02732 1.95194 109.64009 109.64009 0 01-15.12471-.71588 125.98165 125.98165 0 01-14.87588-2.65778A88.70831 88.70831 0 01307.96693 253.5594zM307.96693 274.91489c5.04345.42657 9.98935 1.03363 14.93308 1.6145l14.77342 1.76913c4.91741.57886 9.8319 1.06214 14.7645 1.54462 4.9384.47009 9.87448.761 14.929 1.19174a70.35068 70.35068 0 01-15.02732 1.95194 109.64009 109.64009 0 01-15.12471-.71588 125.96937 125.96937 0 01-14.87588-2.65778A88.71018 88.71018 0 01307.96693 274.91489z"></path><path fill="#ee781d" d="M449.17833 192.35061l-23.29673 3.92888a2 2 0 01-2.34444-1.58228l-.77263-16.82828a2 2 0 011.58228-2.34444l23.59568-4.84936a2 2 0 012.34444 1.58228l.47368 17.74877A2 2 0 01449.17833 192.35061zM435.95292 233.81126l-23.29673 3.92888a2 2 0 01-2.34444-1.58229l-.77263-16.82828a2 2 0 011.58228-2.34443l23.59568-4.84937a2 2 0 012.34444 1.58228l.47368 17.74877A2 2 0 01435.95292 233.81126z"></path><path fill="#ce800d" d="M411.12141,216.98514a2,2,0,0,0-1.58228,2.34436l.77265,16.82837a2,2,0,0,0,2.34442,1.58227l9.16-1.5448L419.737,215.21451Z"></path><path fill="#ee781d" d="M445.07114,275.2719l-23.29673,3.92888A2,2,0,0,1,419.43,277.6185l-.77264-16.82828a2,2,0,0,1,1.58229-2.34444l23.59568-4.84937a2,2,0,0,1,2.34444,1.58229l.47368,17.74877A2,2,0,0,1,445.07114,275.2719Z"></path><path fill="#ce800d" d="M420.23963,258.44571a2.00008,2.00008,0,0,0-1.58227,2.34448l.77264,16.82837a1.98642,1.98642,0,0,0,.9953,1.35864,81.17976,81.17976,0,0,0,3.1004-21.20679Z"></path><circle cx="312.04" cy="385.483" r="12.96" fill="#b9d4db"></circle><circle cx="294.76" cy="354.523" r="6.72" fill="#b9d4db"></circle><circle cx="338.718" cy="361.243" r="9.6" fill="#b9d4db"></circle><circle cx="174.129" cy="310.876" r="15.42" fill="#b9d4db"></circle><circle cx="144.663" cy="299.893" r="8.032" fill="#b9d4db"></circle><circle cx="152.041" cy="272.59" r="4.633" fill="#b9d4db"></circle><circle cx="177.688" cy="275.868" r="11.107" fill="#b9d4db"></circle><circle cx="271.185" cy="137.219" r="15.42" fill="#b9d4db"></circle><circle cx="271.811" cy="105.78" r="8.032" fill="#b9d4db"></circle><circle cx="325.309" cy="110.473" r="6.952" fill="#b9d4db"></circle><circle cx="300.018" cy="103.718" r="4.633" fill="#b9d4db"></circle><circle cx="305.402" cy="129.007" r="11.107" fill="#b9d4db"></circle><rect width="18.18" height="18.18" x="232.239" y="299.464" fill="#dbe8ec" transform="rotate(29.699 241.329 308.554)"></rect><path fill="#3086a3" d="M314.01052,301.09323A62.818,62.818,0,1,0,226.027,288.751,62.81434,62.81434,0,0,0,314.01052,301.09323Zm-78.20446-19.70585a50.58059,50.58059,0,1,1,70.83194,9.93131A50.58657,50.58657,0,0,1,235.80606,281.38738Z"></path><circle cx="276.189" cy="250.935" r="50.58" fill="#fff" opacity=".76"></circle><path fill="none" stroke="#dbe8ec" stroke-miterlimit="10" stroke-width="10" d="M312.30119,253.1553a36.18,36.18,0,0,1-67.87805,15.09763"></path><rect width="33.12" height="78.675" x="200.798" y="311.244" fill="#3086a3" rx="2" transform="rotate(29.699 217.358 350.582)"></rect><path fill="#25788e" d="M213.24358,391.219l36.99731-64.866a1.99979,1.99979,0,0,0-.74642-2.7281l-6.2909-3.58808a2,2,0,0,1,.746,2.72791L206.95232,387.6306a1.99987,1.99987,0,0,1-2.7281.74641l6.29126,3.58835A1.99991,1.99991,0,0,0,213.24358,391.219Z"></path><path fill="#409cb5" d="M190.55778,378.27966,227.555,313.41378a1.9999,1.9999,0,0,1,2.72814-.74637l6.98771,3.98549-13.07115-7.45534a2,2,0,0,0-2.72814.74636l-36.9973,64.866a2.00024,2.00024,0,0,0,.74635,2.72822l6.0835,3.46973A1.99993,1.99993,0,0,1,190.55778,378.27966Z"></path><polygon fill="#409cb5" points="198.292 384.993 210.515 391.965 210.516 391.965 198.292 384.993"></polygon><path fill="#dbe8ec" d="M177.53026,378.72715H213.034a2,2,0,0,1,2,2V386.669a13.17486,13.17486,0,0,1-13.17486,13.17486h-13.154A13.17486,13.17486,0,0,1,175.53026,386.669v-5.94182a2,2,0,0,1,2-2Z" transform="rotate(29.699 195.282 389.286)"></path><path fill="#e8eeef" d="M185.40177,380.68282l2.94378-5.16128a2.00009,2.00009,0,0,1,2.72824-.74644l25.17612,14.35957a2.01862,2.01862,0,0,0-.3167-.22559l-30.84-17.59006a2.00017,2.00017,0,0,0-2.72824.74644l-2.94388,5.16135A13.175,13.175,0,0,0,184.338,395.1984l5.329,3.03939A13.16418,13.16418,0,0,1,185.40177,380.68282Z"></path><path fill="#bad5db" d="M213.73568,396.79866l2.94389-5.16136a2.00023,2.00023,0,0,0-.74636-2.72822l-6.31823-3.60364a1.99956,1.99956,0,0,1,.74129,2.72455l-2.94378,5.16128a13.175,13.175,0,0,1-17.97168,4.91687l-5.11342-2.9165.0106.00676,11.42621,6.517A13.17469,13.17469,0,0,0,213.73568,396.79866Z"></path></svg>
	</symbol>
	<symbol id='plus'>
	<svg xmlns="http://www.w3.org/2000/svg" viewBox="0 0 24 24" id="plus"><path d="M19,11H13V5a1,1,0,0,0-2,0v6H5a1,1,0,0,0,0,2h6v6a1,1,0,0,0,2,0V13h6a1,1,0,0,0,0-2Z"></path></svg>
	</symbol>
	<symbol id='back'>
	<svg xmlns="http://www.w3.org/2000/svg" enable-background="new 0 0 24 24" viewBox="0 0 24 24" id="back"><path d="M7.5,7C7.223877,7,7,7.223877,7,7.5v9.0005493C7.0001831,16.7765503,7.223999,17.0001831,7.5,17h0.0006104C7.7765503,16.9998169,8.0001831,16.776001,8,16.5v-9C8,7.223877,7.776123,7,7.5,7z M16.8535156,16.1464844L12.6982422,12l4.1552124-4.1464844c0.1871948-0.1937866,0.1871948-0.5009766,0-0.6947021c-0.1918335-0.1986694-0.5083618-0.2041626-0.7069702-0.0122681l-4.5097656,4.5c-0.000061,0-0.0001221,0.000061-0.0001831,0.0001221c-0.1951294,0.1952515-0.1950684,0.5117188,0.0001831,0.7068481l4.5097656,4.5C16.2401123,16.9474487,16.3673706,17.0001831,16.5,17c0.1325684,0,0.2597046-0.0526733,0.3534546-0.1464233C17.0487061,16.6583252,17.0487671,16.3417358,16.8535156,16.1464844z"></path></svg>
	</symbol>
	<symbol id='money'>
	<svg xmlns="http://www.w3.org/2000/svg" viewBox="0 0 68 68" id="money"><path d="M38.4 19.86a9.74 9.74 0 1 0 9.74 9.73A9.75 9.75 0 0 0 38.4 19.86zm0 8.73a2.9 2.9 0 0 1 1 5.62v.67a1 1 0 0 1-2 0v-.67a2.91 2.91 0 0 1-1.91-2.72 1 1 0 1 1 2 0 .91.91 0 1 0 1.81 0 .9.9 0 0 0-.9-.9 2.89 2.89 0 0 1-1-5.61v-.67a1 1 0 0 1 2 0V25a2.9 2.9 0 0 1 1.9 2.71 1 1 0 0 1-2 0 .89.89 0 0 0-.9-.9.9.9 0 1 0 0 1.8zM25 28.59H22a1 1 0 0 0 0 2H25a1 1 0 0 0 0-2zM54.78 28.59h-3a1 1 0 0 0 0 2h3a1 1 0 0 0 0-2z"></path><path d="M62.55,11.08H14.26a4.46,4.46,0,0,0-4.45,4.41,4.45,4.45,0,0,0-4.4,4.4A4.46,4.46,0,0,0,1,24.34V52.46a4.46,4.46,0,0,0,4.45,4.46h48.3a4.46,4.46,0,0,0,4.44-4.41,4.45,4.45,0,0,0,4.4-4.41A4.45,4.45,0,0,0,67,43.65V15.53A4.46,4.46,0,0,0,62.55,11.08Zm-4.4,39.43H9.85A2.45,2.45,0,0,1,7.4,48.06V19.94a2.45,2.45,0,0,1,2.41-2.45V43.65a4.45,4.45,0,0,0,4.45,4.45H60.59A2.44,2.44,0,0,1,58.15,50.51Zm4.54-13.19a1,1,0,0,1-1,1,4.47,4.47,0,0,0-4.47,4.47,1,1,0,0,1-1,1H20.59a1,1,0,0,1-1-1,4.47,4.47,0,0,0-4.47-4.47,1,1,0,0,1-1-1V21.87a1,1,0,0,1,1-1,4.47,4.47,0,0,0,4.47-4.47,1,1,0,0,1,1-1H56.22a1,1,0,0,1,1,1,4.47,4.47,0,0,0,4.47,4.47,1,1,0,0,1,1,1Z"></path></svg>
	</symbol>
    </defs>
</svg>
