
<svg xmlns="http://www.w3.org/2000/svg">
    <defs>
        <symbol id="upload-file" viewBox="0 0 512 512">
	<path fill="#9bc9ff" fill-rule="evenodd" d="m164.91 355.681 91.092-104.764 91.092 104.764h-36.609c-2.212 0-4.019 1.784-4.019 4v140.32H205.539v-140.32c0-2.216-1.807-4-4.019-4h-36.61zM369.836 56.654v-39l38.985 39h-38.985z" clip-rule="evenodd"></path><path fill="#57a4ff" fill-rule="evenodd" d="M151.849 81.65c0-4.41 3.585-8 7.972-8h138.07c4.434 0 8.019 3.59 8.019 8 0 4.42-3.585 8-8.019 8H159.82c-4.386 0-7.971-3.58-7.971-8zm208.307 113.362c0 4.41-3.585 8-7.972 8H159.82c-4.387 0-7.972-3.59-7.972-8 0-4.42 3.585-8 7.972-8h192.364c4.387 0 7.972 3.58 7.972 8zm0-56.681c0 4.42-3.585 8-7.972 8H159.82c-4.387 0-7.972-3.58-7.972-8s3.585-8 7.972-8h192.364c4.387 0 7.972 3.58 7.972 8zM318.504 421.15h91.984V68.65h-44.671c-4.434 0-7.972-3.59-7.972-8V16.002H101.517V421.15h91.984v-53.468h-37.359a8.041 8.041 0 0 1-7.311-4.679c-1.274-2.849-.802-6.198 1.274-8.561l99.861-114.871a8.002 8.002 0 0 1 12.076 0l99.861 114.871a7.909 7.909 0 0 1 1.226 8.561c-1.274 2.849-4.104 4.679-7.264 4.679h-37.359v53.468h-.002zm-16.038-61.468v136.32h-92.927v-136.32c0-4.411-3.585-8-8.019-8h-27.831l82.314-94.668 82.314 94.668h-27.831c-4.435-.001-8.02 3.589-8.02 8zm71.37-332.368 25.331 25.34h-25.331v-25.34zm50.284 27.68L371.477 2.342a8.02 8.02 0 0 0-5.66-2.34H93.545c-4.434 0-8.019 3.58-8.019 8V429.15c0 4.411 3.585 8 8.019 8h99.956v66.851c0 4.42 3.585 8 8.019 8h108.965c4.387 0 8.019-3.58 8.019-8V437.15h99.956c4.434 0 8.019-3.59 8.019-8V60.65a7.961 7.961 0 0 0-2.359-5.656z" clip-rule="evenodd"></path>
        </symbol>
	<symbol id='wave-down'>
    	<path fill="#00cba9" fill-opacity="1" d="M0,96L30,96C60,96,120,96,180,117.3C240,139,300,181,360,186.7C420,192,480,160,540,133.3C600,107,660,85,720,90.7C780,96,840,128,900,149.3C960,171,1020,181,1080,197.3C1140,213,1200,235,1260,229.3C1320,224,1380,192,1410,176L1440,160L1440,320L1410,320C1380,320,1320,320,1260,320C1200,320,1140,320,1080,320C1020,320,960,320,900,320C840,320,780,320,720,320C660,320,600,320,540,320C480,320,420,320,360,320C300,320,240,320,180,320C120,320,60,320,30,320L0,320Z"></path>
	</symbol>
	<symbol id='email-address'>
	
	<svg xmlns="http://www.w3.org/2000/svg" enable-background="new 0 0 100 100" viewBox="0 0 100 100" id="email"><path d="M50,5C25.2,5,5,25.2,5,50c0,24.8,20.2,45,45,45c1.1,0,2-0.9,2-2s-0.9-2-2-2C27.4,91,9,72.6,9,50S27.4,9,50,9s41,18.4,41,41
	v10c0,5-4,9-9,9s-9-4-9-9V50c0-12.7-10.3-23-23-23c-12.7,0-23,10.3-23,23c0,12.7,10.3,23,23,23c8.1,0,15.1-4.2,19.3-10.4
	C70.4,68.5,75.7,73,82,73c7.2,0,13-5.8,13-13V50C95,25.2,74.8,5,50,5z M50,69c-10.5,0-19-8.5-19-19s8.5-19,19-19s19,8.5,19,19
	S60.5,69,50,69z"></path></svg>

	</symbol>
	<symbol id='password'>
<svg xmlns="http://www.w3.org/2000/svg" viewBox="0 0 24 24" id="password"><g><path d="M19,20H5a4,4,0,0,1-4-4V12A4,4,0,0,1,5,8H19a4,4,0,0,1,4,4v4A4,4,0,0,1,19,20ZM5,10a2,2,0,0,0-2,2v4a2,2,0,0,0,2,2H19a2,2,0,0,0,2-2V12a2,2,0,0,0-2-2Z"></path><path d="M19,10H5V8A7,7,0,0,1,19,8ZM7,8H17A5,5,0,0,0,7,8Z"></path><path d="M19,9H5a3,3,0,0,0-3,3v4a3,3,0,0,0,3,3H19a3,3,0,0,0,3-3V12A3,3,0,0,0,19,9ZM6,15a1,1,0,1,1,1-1A1,1,0,0,1,6,15Zm4,0a1,1,0,1,1,1-1A1,1,0,0,1,10,15Zm4,0a1,1,0,1,1,1-1A1,1,0,0,1,14,15Zm4,0a1,1,0,1,1,1-1A1,1,0,0,1,18,15Z"></path></g></svg>
	</symbol>
	<symbol id='username'>
	<svg xmlns="http://www.w3.org/2000/svg" enable-background="new 0 0 512 512" viewBox="0 0 512 512" id="user"><path d="M376.9 175.9c-.3 49.8-31.7 96.2-78.8 113.4-48.2 17.6-102.7 2.8-135.5-36.6-32.4-38.9-36.2-96-10.2-139.1 26-43.3 78.1-66.4 127.7-56.2 49.2 10.1 87.5 50.3 95.5 99.8C376.5 163.4 376.9 169.7 376.9 175.9c.1 9.6 15.1 9.7 15 0-.3-56.7-36-107.9-89.2-127.6-53-19.7-115.2-2.9-151.2 40.7-36.4 44.2-41.7 108.2-11.8 157.4 29.6 48.5 87.3 73.6 142.9 62.8 54.8-10.7 99.1-56.7 107.5-111.9 1.1-7.1 1.7-14.2 1.7-21.3C392 166.3 377 166.3 376.9 175.9zM22.7 469.8c49.5-48.5 111.9-82.8 180.5-94.4 64.5-10.9 131.8-.6 190.7 27.6 35.2 16.9 67.3 39.6 95.3 66.8 6.9 6.7 17.6-3.9 10.6-10.6-51.1-49.4-115.6-85-185.9-97.6-67.8-12.2-137.8-2.8-200.3 26.3C76 405.5 41.8 430.1 12.1 459.2 5.2 465.9 15.8 476.5 22.7 469.8L22.7 469.8z"></path></svg>

	</symbol>
    </defs>
</svg>
