<svg xmlns="http://www.w3.org/2000/svg" xmlns:xlink="http://www.w3.org/1999/xlink" viewBox="0 0 585 595.61" id="data-analysis"><defs><linearGradient id="c" x1="324.86" x2="511.08" y1="420.8" y2="426.34" gradientUnits="userSpaceOnUse"><stop offset="0" stop-color="#68e1fd" stop-opacity="0"></stop><stop offset=".02" stop-color="#66daf6" stop-opacity=".04"></stop><stop offset=".18" stop-color="#58a1bc" stop-opacity=".39"></stop><stop offset=".35" stop-color="#4d758f" stop-opacity=".66"></stop><stop offset=".53" stop-color="#45566f" stop-opacity=".85"></stop><stop offset=".73" stop-color="#40435c" stop-opacity=".96"></stop><stop offset=".99" stop-color="#3f3d56"></stop></linearGradient><linearGradient id="a" x1="434.37" x2="458.52" y1="201.82" y2="201.82" gradientUnits="userSpaceOnUse"><stop offset="0" stop-color="#ecc4d7"></stop><stop offset=".42" stop-color="#efd4d1"></stop><stop offset="1" stop-color="#f2eac9"></stop></linearGradient><linearGradient id="d" x1="447.17" x2="442.19" y1="188.38" y2="244.22" xlink:href="#a"></linearGradient><linearGradient id="e" x1="412.81" x2="464.01" y1="168.55" y2="168.55" xlink:href="#a"></linearGradient><linearGradient id="b" x1="424.4" x2="417.84" y1="525.43" y2="503.82" gradientUnits="userSpaceOnUse"><stop offset=".36" stop-color="#00272e"></stop><stop offset="1" stop-color="#69b9eb" stop-opacity="0"></stop></linearGradient><linearGradient id="f" x1="467.66" x2="455.19" y1="528.81" y2="506.78" xlink:href="#b"></linearGradient><linearGradient id="g" x1="427.76" x2="460.71" y1="289.6" y2="289.6" xlink:href="#a"></linearGradient><linearGradient id="h" x1="345.86" x2="372.16" y1="186.01" y2="186.01" xlink:href="#a"></linearGradient><linearGradient id="i" x1="444.92" x2="452.63" y1="277.86" y2="277.86" xlink:href="#a"></linearGradient></defs><path fill="#68e1fd" d="M512.63 490.95c-250 217-608.71 61.8-488.78-150h281.21a14.55 14.55 0 0 0 14.55-14.56V99.94a190.94 190.94 0 0 0 20.94-35.88C363.5 12.2 423-13.67 475.73 7.29c137.56 54.72 139.92 394.25 36.9 483.66Z" opacity=".18"></path><ellipse cx="342.44" cy="523.88" fill="#000405" opacity=".05" rx="90.63" ry="11.17"></ellipse><path fill="#3f3d56" d="M342.76 516.69c0 1.51-15.64 10.43-30.91 10.43s-8.08-14.82-2.87-14.66h5.21l2.92-1.46 11.21-5.74 1.67-3.6s8.91 2 10.42-.32l1.46 10.08v1.82a7.29 7.29 0 0 1 .89 3.45Z"></path><path fill="#3f3d56" d="M341.87 513.24a7.26 7.26 0 0 1 .83 3.45c0 1.51-15.63 10.43-30.9 10.43s-8.08-14.82-2.87-14.66h5.21l2.92-1.46 24.6.42Z"></path><path fill="#3f3d56" d="M320.14 521.49a23 23 0 0 1-11.47 0c-3.44-1.88-4.53-3.29-4.38-4.75s2.19-5.64 10.43-3.65 9.95 6.36 9.95 6.36ZM381.12 517.47a39.74 39.74 0 0 1-28.83 15.08c-15.63 0-8.07-14.66-2.86-14.66a18.46 18.46 0 0 0 4.32-.42l6.41-5.74 19.76.36v1.93a7.36 7.36 0 0 1 1.2 3.45Z"></path><path fill="#3f3d56" d="M361.1 526.18a22.7 22.7 0 0 1-11.46 0c-3.44-1.88-4.54-3.28-4.38-4.75s2.19-5.63 10.42-3.65 9.75 6.42 9.75 6.42Z"></path><path fill="#68e1fd" d="m310.6 346.41 15.63 154.78s10.43 3.75 15.07 0l6.46-121.9 18.29 122.94s8.55 5.53 13.81-.73l6.83-155.87s-54.36 11.59-76.09.78Z"></path><path fill="url(#c)" d="m402.6 346.53 15.63 154.78s10.43 3.75 15.07 0l6.46-121.9 18.29 122.94s8.55 5.53 13.81-.73l6.83-155.87s-54.36 11.59-76.09.78Z" transform="translate(-92 -.12)" style="isolation:isolate"></path><path fill="#68e1fd" d="M403 311.03c-11.42 9.45-16.63 4.91-16.63 4.91l.37 29.69s-59.84 14.56-76.15.78l2.45-62.3 3.69-28.13L290 275.46a20 20 0 0 1-16.7 3.42c-4.05-1.05-7.88-3.54-9.09-9-2.92-13-1-65.22-1-65.22l16.94-5.22 6.21 41.74s24.64-20.7 35.56-24.73v-.21l25.33-11.85 18.19-4.33a42.39 42.39 0 0 0 6.51 4.18 57.13 57.13 0 0 0 17.67 6.78c8.19.89 11.62 16.23 12.72 23.49s8.66 43.17 8.66 43.17 3.42 23.91-8 33.35Z"></path><path fill="#3f3d56" d="M365.58 198.79a15.6 15.6 0 0 1-21.36 7.3s-12.93 22.5 5.57 19.83c9.8-1.41 16.73-13.45 17.77-24.37Z"></path><path fill="#000405" d="M364.75 282.54c.66-.71 3.18-.63 4.13-.39 4.25 1.08 16 4 17.4 3.11 1.66-1.05-4.59-43.79-4.59-43.79s-1.41 23.64-31.69 35c-14.75 5.53 10.11 13.09 10.11 13.09Z" opacity=".05"></path><path fill="#000405" d="M364.49 302.88c6 3.42 18.66 10.67 21.84 13v19.57s-56-8.35-56-12.42-17.93-30.74-17.93-30.74l.37-3.34 48.42-5.74s2.31-2.75-1.23 14.58c-.42 2.14 2.63 4.03 4.53 5.09Z" opacity=".05"></path><path fill="#fff" d="m353.96 279.41-3.91-19.57-43.31 4.23 9.44 58.7 43.31-3.28-5.53-40.08z"></path><path fill="url(#a)" d="M458.52 180.86s-.19 3.32-.42 7.65c-.19 3.65-.43 8-.63 11.7a24.53 24.53 0 0 1-7.47 16.34c-2.6 2.66-8.79 7.61-13.53 5.85-2.28-.85-2.37-3.75-1.89-5.48a34 34 0 0 0 1-17.85c-2.9-7.41 22.94-18.21 22.94-18.21Z" transform="translate(-92 -.12)"></path><path fill="url(#d)" d="M458.52 180.86s-.19 3.32-.42 7.65c-1.81 4.05-3.51 7.35-4.44 9-1.87 3.32-9.58 8.55-17.3 9.6a33.41 33.41 0 0 0-.72-8c-2.96-7.45 22.88-18.25 22.88-18.25Z" transform="translate(-92 -.12)"></path><path fill="url(#e)" d="M436 136.81a24.73 24.73 0 0 0-23 27.92 83.75 83.75 0 0 0 7.61 29c8.08 13.78 28.46 2.46 31.69-3.23s15.7-31.3 10.44-38.56c-3.59-4.94-13.55-15.65-26.74-15.13Z" transform="translate(-92 -.12)"></path><path fill="#3f3d56" d="m322.48 127.09 4.07 2.14a15.62 15.62 0 0 0-12.77 6.05 20.92 20.92 0 0 0-6 14.4l7.14-3.39s-.52 8.77 12.93 9.45 27.72 1.2 27.72 1.2l-4.58-6.32s8.49 3.4 9.85 6.47a101.77 101.77 0 0 1 2.81 15.09s3.39-8.61 4.69-6.74-1.46 9.71-3.23 11.48-1.46 6.89-1.61 7.31 8.34-6.63 8.75-9 8.92-27 3.39-32.09l3.36-.26a16 16 0 0 0-6.62-2.56s-22.17-29.04-49.9-13.23Z"></path><path fill="#68e1fd" d="M314.19 512.51s5.22 2.66 5.53 6.78l.42 2.25s19.59-3.71 21.78-8.25l-.94-6.88a10 10 0 0 1-9 3.23c-4.64-1.41-3.75-4.38-3.75-4.38ZM355.58 518.41l-1.72-.89 12.77-11.43s2.76 6.68 12.45 1.31l1.2 6.83a44.91 44.91 0 0 1-20.43 12.37 10.41 10.41 0 0 0-4.27-8.19Z"></path><path fill="url(#b)" d="M406.19 512.63s5.22 2.66 5.53 6.78l.42 2.25s19.59-3.71 21.78-8.25l-.94-6.88a10 10 0 0 1-9 3.23c-4.64-1.41-3.75-4.38-3.75-4.38Z" opacity=".61" transform="translate(-92 -.12)"></path><path fill="url(#f)" d="m447.58 518.53-1.72-.89 12.77-11.43s2.76 6.68 12.45 1.31l1.2 6.83a44.91 44.91 0 0 1-20.43 12.37 10.41 10.41 0 0 0-4.27-8.19Z" opacity=".61" transform="translate(-92 -.12)"></path><path fill="#3f3d56" d="M339.73 354.08s2.56 20.88 8.24 25.21l-1.77-24.53ZM376.49 347.82l2.44 154.3 7.76-156.49-10.2 2.19z"></path><path fill="url(#g)" d="M448.31 300a47 47 0 0 1-16.06-2.82 6.27 6.27 0 0 1-4.06-8.3 17.26 17.26 0 0 1 12-9.75 39 39 0 0 1 16.57 3.49 6.11 6.11 0 0 1 2.35 9.86 25.5 25.5 0 0 1-10.8 7.52Z" transform="translate(-92 -.12)"></path><path fill="url(#h)" d="M372.16 199.59s-1.3-13.05-1.61-17 1.14-11.59-2.92-14a18.59 18.59 0 0 1-5.21 2.61c-1.93.31-8.81-9.13-13.5 0s-3.24 17.27-.63 20.25a76.46 76.46 0 0 1 7 13.36Z" transform="translate(-92 -.12)"></path><path fill="#3f3d56" d="m367.56 502.88-.93 3.18s3.91 8.09 12.45 1.31v-4.8a11.21 11.21 0 0 1-11.52.31Z"></path><path fill="url(#i)" d="M444.92 274.31a6.08 6.08 0 0 1 3.18 1.88 66.17 66.17 0 0 0 4.53 5.22l-6.63-1.88Z" transform="translate(-92 -.12)"></path><rect width="310.94" height="265.08" x="8.31" y="76.04" fill="#68e1fd" opacity=".4" rx="14.56"></rect><path fill="#3f3d56" d="m212.25 164.19-57.91 26.78v-63.22l4-6.72c23.41 1 47.64 16.44 57.91 36.44Z"></path><rect width="311.04" height="13.05" x="8.31" y="375.79" fill="#68e1fd" rx="6.42"></rect><path fill="#3f3d56" d="M216.28 202.73a64.21 64.21 0 1 1-128.42 0c0-1.32 0-2.64.11-3.93a64.22 64.22 0 0 0 128.2 0c.07 1.29.11 2.61.11 3.93Z"></path><path fill="#68e1fd" d="M216.28 194.88c0 1.34 0 2.66-.11 4a64.22 64.22 0 0 1-128.2 0c-.07-1.3-.11-2.62-.11-4a64.21 64.21 0 0 1 64.21-64.19v63.19L210 167.09a64 64 0 0 1 6.28 27.79Z"></path><path fill="#68e1fd" d="m216.28 157.47-57.91 26.78v-63.22a64.2 64.2 0 0 1 57.91 36.44Z"></path><path fill="#3f3d56" d="m216.28 157.47-57.91 26.78v-63.22a64.2 64.2 0 0 1 57.91 36.44Z" opacity=".45"></path></svg>