<svg id="visual" viewBox="0 0 600 900" width="600" height="900" xmlns="http://www.w3.org/2000/svg" xmlns:xlink="http://www.w3.org/1999/xlink" version="1.1"><path d="M0 302L16.7 282.3C33.3 262.7 66.7 223.3 100 193.7C133.3 164 166.7 144 200 140.7C233.3 137.3 266.7 150.7 300 191.5C333.3 232.3 366.7 300.7 400 317C433.3 333.3 466.7 297.7 500 261.8C533.3 226 566.7 190 583.3 172L600 154L600 0L583.3 0C566.7 0 533.3 0 500 0C466.7 0 433.3 0 400 0C366.7 0 333.3 0 300 0C266.7 0 233.3 0 200 0C166.7 0 133.3 0 100 0C66.7 0 33.3 0 16.7 0L0 0Z" fill="#0066FF" stroke-linecap="round" stroke-linejoin="miter"></path></svg>