<?xml version="1.0" standalone="no"?><svg xmlns="http://www.w3.org/2000/svg" viewBox="0 0 1440 320"><path fill="#00cba9" fill-opacity="1" d="M0,160L30,149.3C60,139,120,117,180,112C240,107,300,117,360,149.3C420,181,480,235,540,213.3C600,192,660,96,720,96C780,96,840,192,900,208C960,224,1020,160,1080,122.7C1140,85,1200,75,1260,106.7C1320,139,1380,213,1410,250.7L1440,288L1440,320L1410,320C1380,320,1320,320,1260,320C1200,320,1140,320,1080,320C1020,320,960,320,900,320C840,320,780,320,720,320C660,320,600,320,540,320C480,320,420,320,360,320C300,320,240,320,180,320C120,320,60,320,30,320L0,320Z"></path></svg>