<?xml version="1.0" standalone="no"?><svg xmlns="http://www.w3.org/2000/svg" viewBox="0 0 1440 320"><path fill="#00cba9" fill-opacity="1" d="M0,32L30,69.3C60,107,120,181,180,208C240,235,300,213,360,176C420,139,480,85,540,85.3C600,85,660,139,720,154.7C780,171,840,149,900,138.7C960,128,1020,128,1080,112C1140,96,1200,64,1260,74.7C1320,85,1380,139,1410,165.3L1440,192L1440,320L1410,320C1380,320,1320,320,1260,320C1200,320,1140,320,1080,320C1020,320,960,320,900,320C840,320,780,320,720,320C660,320,600,320,540,320C480,320,420,320,360,320C300,320,240,320,180,320C120,320,60,320,30,320L0,320Z"></path></svg>